<?xml version="1.0" standalone="no"?>
<svg viewBox="0 0 200 200" xmlns="http://www.w3.org/2000/svg">
  <path fill="#FE6700" d="M33.3,-48.7C48.2,-42.3,68.8,-41.6,75.6,-32.8C82.4,-24,75.3,-7.1,72.2,10C69.2,27,70.1,44.3,60.7,49.3C51.3,54.4,31.5,47.3,15.1,52.8C-1.4,58.3,-14.6,76.5,-24.1,76.3C-33.6,76.1,-39.4,57.7,-44,43.2C-48.5,28.8,-51.9,18.4,-55.4,6.8C-58.9,-4.8,-62.7,-17.6,-59,-27.5C-55.3,-37.4,-44.3,-44.5,-33.2,-52.7C-22.1,-60.9,-11.1,-70.2,-0.9,-68.8C9.2,-67.4,18.4,-55.2,33.3,-48.7Z" transform="translate(100 100)" />
</svg>
