<?xml version="1.0" standalone="no"?>
<svg viewBox="0 0 200 200" xmlns="http://www.w3.org/2000/svg">
  <path fill="#FE6700" d="M48.9,-75.6C61.9,-67.7,69.9,-51.7,68.8,-36.6C67.7,-21.5,57.4,-7.3,56.1,8.7C54.8,24.8,62.5,42.8,58.2,53.9C54,65,37.8,69.2,23.8,66.8C9.8,64.4,-1.9,55.3,-11.1,48C-20.4,40.7,-27.1,35,-35.4,28.8C-43.8,22.6,-53.7,15.9,-54.1,8.2C-54.5,0.6,-45.4,-8,-43,-22.2C-40.5,-36.4,-44.7,-56.2,-38.6,-67.2C-32.5,-78.3,-16.3,-80.6,0.8,-81.9C17.9,-83.2,35.9,-83.5,48.9,-75.6Z" transform="translate(100 100)" />
</svg>
